<?xml version="1.0" ?><svg style="enable-background:new 0 0 24 24;" version="1.1" viewBox="0 0 24 24" xml:space="preserve" xmlns="http://www.w3.org/2000/svg" xmlns:xlink="http://www.w3.org/1999/xlink"><style type="text/css">
	.st0{display:none;}
	.st1{display:inline;}
	.st2{opacity:0.2;fill:none;stroke:#000000;stroke-width:5.000000e-02;stroke-miterlimit:10;}
</style><g class="st0" id="grid_system"/><g id="_icons"><path d="M21,11c0-2.2-1.8-4-4-4h-3.4l-0.9-1.8C12,3.8,10.7,3,9.1,3H7C4.8,3,3,4.8,3,7v1v9c0,2.2,1.8,4,4,4h10c2.2,0,4-1.8,4-4V11z    M7,5h2.1c0.8,0,1.4,0.4,1.8,1.1L11.4,7H5C5,5.9,5.9,5,7,5z M19,17c0,1.1-0.9,2-2,2H7c-1.1,0-2-0.9-2-2V9h8h4c1.1,0,2,0.9,2,2V17z"/><path d="M12.7,11.3c-0.4-0.4-1-0.4-1.4,0l-2,2c-0.4,0.4-0.4,1,0,1.4s1,0.4,1.4,0l0.3-0.3V16c0,0.6,0.4,1,1,1s1-0.4,1-1v-1.6   l0.3,0.3c0.2,0.2,0.5,0.3,0.7,0.3s0.5-0.1,0.7-0.3c0.4-0.4,0.4-1,0-1.4L12.7,11.3z"/></g></svg>